<?xml version="1.0" encoding="utf-8"?>
<!-- Generator: Adobe Illustrator 27.0.0, SVG Export Plug-In . SVG Version: 6.00 Build 0)  -->
<svg version="1.1" id="图层_1" xmlns="http://www.w3.org/2000/svg" xmlns:xlink="http://www.w3.org/1999/xlink" x="0px" y="0px"
	 viewBox="0 0 429 93.2" style="enable-background:new 0 0 429 93.2;" xml:space="preserve">
<style type="text/css">
	.st0{fill:none;}
	.st1{fill:#4B5320;}
	.st2{fill:#003037;}
</style>
<path class="st0" d="M214.5,64.9h-34.9c-4,0-7.3-3.3-7.3-7.3V22.7c0-4,3.3-7.3,7.3-7.3h34.9c4,0,7.3,3.3,7.3,7.3v34.9
	C221.8,61.6,218.5,64.9,214.5,64.9z"/>
<path class="st1" d="M187.5,21.3l-11.2,27.1c-0.9,2,0.1,3.9,2.2,4.5l28.2,8c1.1,0.3,2.7-0.4,3.1-1.5l3.5-8.5c0.5-1.2,0-2.3-1.3-2.7
	l-18.6-5.3l7.5-17.9c0.5-1.2,0-2.3-1.3-2.7l-8.8-2.5C189.5,19.5,188,20.2,187.5,21.3z"/>
<path class="st2" d="M209.5,49.3l-11.8-9.6c-0.9-0.7-2.2-0.7-3,0l-11.8,9.6c-0.5,0.4-0.5,1.1,0,1.5l3.7,3c0.5,0.4,1.3,0.4,1.8,0
	l2.1-1.7c3.3-2.7,8-2.7,11.3,0l2.1,1.7c0.5,0.4,1.3,0.4,1.8,0l3.7-3C210,50.4,210,49.7,209.5,49.3z"/>
<path class="st2" d="M216.6,31.3l-11.8-9.6c-0.9-0.7-2.2-0.7-3,0L190,31.3c-0.5,0.4-0.5,1.1,0,1.5l3.7,3c0.5,0.4,1.3,0.4,1.8,0
	l2.1-1.7c3.3-2.7,8-2.7,11.3,0l2.1,1.7c0.5,0.4,1.3,0.4,1.8,0l3.7-3C217.1,32.5,217.1,31.7,216.6,31.3z"/>
</svg>
